<?xml version="1.0" standalone="no"?><!DOCTYPE svg PUBLIC "-//W3C//DTD SVG 1.1//EN" "http://www.w3.org/Graphics/SVG/1.1/DTD/svg11.dtd"><svg t="1743759105831" class="icon" viewBox="0 0 1024 1024" version="1.1" xmlns="http://www.w3.org/2000/svg" p-id="24964" xmlns:xlink="http://www.w3.org/1999/xlink" width="200" height="200"><path d="M360 824h320a24 24 0 0 1 0 48h-320a24 24 0 0 1 0-48z m0-112h256a24 24 0 0 1 0 48h-256a24 24 0 0 1 0-48z m192-108.688a24 24 0 0 1 0 48h-192a24 24 0 0 1 0-48h192zM416 272c0-57.344 46.656-104 104-104S624 214.656 624 272c0 26.24-9.84 50.16-25.936 68.48C645.808 358.528 672 395.584 672 448c0 56.848-81.872 77.024-152 77.024-36.304 0-70.48-5.248-96.304-14.736C375.232 492.432 368 463.6 368 448c0-52.416 26.192-89.472 73.936-107.52A103.408 103.408 0 0 1 416 272zM824 32h-608A88.112 88.112 0 0 0 128 120v800c0 48.512 39.488 88 88 88h608c48.512 0 88-39.488 88-88v-800C912 71.488 872.512 32 824 32z m-304 445.024c67.296 0 104-19.168 104-29.024 0-47.776-34.992-72-104-72-69.008 0-104 24.224-104 72 0 9.856 36.704 29.024 104 29.024m0-149.024c30.88 0 56-25.12 56-56s-25.12-56-56-56S464 241.12 464 272s25.12 56 56 56" fill="#2c2c2c" p-id="24965"></path></svg>