<?xml version="1.0" standalone="no"?><!DOCTYPE svg PUBLIC "-//W3C//DTD SVG 1.1//EN" "http://www.w3.org/Graphics/SVG/1.1/DTD/svg11.dtd"><svg t="1743758935440" class="icon" viewBox="0 0 1024 1024" version="1.1" xmlns="http://www.w3.org/2000/svg" p-id="2770" xmlns:xlink="http://www.w3.org/1999/xlink" width="200" height="200"><path d="M683.846688 133.311801l253.915944 253.814283v359.033688l-253.915944 253.915944H324.813L70.897055 746.261434V387.126084l253.915945-253.814283h359.033688z m3.354822 180.380965l70.38348 70.38348c4.506983 4.506983 4.506983 11.758819 0 16.265802l-5.828579 5.828579c-4.506983 4.506983-11.758819 4.506983-16.265802 0l-70.38348-70.38348c-4.506983-4.506983-4.506983-11.758819 0-16.265802l5.828579-5.828579c4.506983-4.405321 11.758819-4.405321 16.265802 0z m34.056522-34.056523l70.38348 70.38348c4.506983 4.506983 4.506983 11.758819 0 16.265802l-5.828579 5.828579c-4.506983 4.506983-11.758819 4.506983-16.265801 0l-70.383481-70.38348c-4.506983-4.506983-4.506983-11.758819 0-16.265802l5.828579-5.828579c4.506983-4.506983 11.758819-4.506983 16.265802 0z m34.158184-34.056522l70.38348 70.38348c4.506983 4.506983 4.506983 11.758819 0 16.265802l-5.828579 5.828579c-4.506983 4.506983-11.758819 4.506983-16.265802 0l-70.485141-70.38348c-4.506983-4.506983-4.506983-11.758819 0-16.265802l5.828579-5.828579c4.574757-4.506983 11.860481-4.506983 16.367463 0zM205.123808 795.296049l70.38348 70.38348c4.506983 4.506983 4.506983 11.758819 0 16.265802l-5.828579 5.828579c-4.506983 4.506983-11.758819 4.506983-16.265802 0l-70.38348-70.38348c-4.506983-4.506983-4.506983-11.758819 0-16.265802l5.828579-5.828579c4.506983-4.506983 11.758819-4.506983 16.265802 0z m34.056522-34.056523l70.38348 70.38348c4.506983 4.506983 4.506983 11.758819 0 16.265802l-5.828579 5.828579c-4.506983 4.506983-11.758819 4.506983-16.265802 0l-70.38348-70.38348c-4.506983-4.506983-4.506983-11.758819 0-16.265802l5.828579-5.828579c4.574757-4.506983 11.860481-4.506983 16.265802 0z m34.124297-34.124297l70.38348 70.38348c4.506983 4.506983 4.506983 11.758819 0 16.265802l-5.828579 5.828579c-4.506983 4.506983-11.758819 4.506983-16.265802 0l-70.38348-70.38348c-4.506983-4.506983-4.506983-11.758819 0-16.265802l5.828579-5.828579c4.506983-4.405321 11.758819-4.405321 16.265802 0z m484.009266 22.365478l-70.38348 70.38348c-4.506983 4.506983-11.758819 4.506983-16.265802 0l-5.828579-5.828579c-4.506983-4.506983-4.506983-11.758819 0-16.265802l70.38348-70.38348c4.506983-4.506983 11.758819-4.506983 16.265802 0l5.828579 5.828579c4.506983 4.506983 4.506983 11.758819 0 16.265802z m34.158184 34.056522l-70.38348 70.383481c-4.506983 4.506983-11.758819 4.506983-16.265802 0l-5.828579-5.828579c-4.506983-4.506983-4.506983-11.758819 0-16.265802l70.38348-70.38348c4.506983-4.506983 11.758819-4.506983 16.265802 0l5.828579 5.828579c4.405321 4.574757 4.405321 11.860481 0 16.265801z m34.056523 34.158184l-70.383481 70.38348c-4.506983 4.506983-11.758819 4.506983-16.265801 0l-5.828579-5.828579c-4.506983-4.506983-4.506983-11.758819 0-16.265801l70.38348-70.383481c4.506983-4.506983 11.758819-4.506983 16.265802 0l5.828579 5.828579c4.506983 4.506983 4.506983 11.758819 0 16.265802zM275.71061 267.403005L205.32713 337.786485c-4.506983 4.506983-11.758819 4.506983-16.265802 0l-5.828579-5.828579c-4.506983-4.506983-4.506983-11.758819 0-16.265802l70.38348-70.38348c4.506983-4.506983 11.758819-4.506983 16.265802 0l5.828579 5.828579c4.506983 4.574757 4.506983 11.860481 0 16.265802z m34.158184 34.158184l-70.38348 70.38348c-4.506983 4.506983-11.758819 4.506983-16.265802 0l-5.828579-5.828579c-4.506983-4.506983-4.506983-11.758819 0-16.265802l70.38348-70.38348c4.506983-4.506983 11.758819-4.506983 16.265802 0l5.828579 5.828579c4.506983 4.506983 4.506983 11.758819 0 16.265802z m34.056523 34.056522l-70.38348 70.38348c-4.506983 4.506983-11.758819 4.506983-16.265802 0l-5.828579-5.828579c-4.506983-4.506983-4.506983-11.758819 0-16.265801l70.38348-70.383481c4.506983-4.506983 11.758819-4.506983 16.265802 0l5.828579 5.828579c4.506983 4.506983 4.506983 11.758819 0 16.265802z m468.624528 181.533126v99.560262c0 6.302998-5.150837 11.487723-11.487722 11.487723h-8.336224c-6.302998 0-11.487723-5.150837-11.487722-11.487723v-99.560262c0-6.302998 5.150837-11.487723 11.487722-11.487722h8.336224c6.302998 0 11.487723 5.150837 11.487722 11.487722z m48.187438 0v99.560262c0 6.302998-5.150837 11.487723-11.487722 11.487723h-8.336224c-6.302998 0-11.487723-5.150837-11.487722-11.487723v-99.560262c0-6.302998 5.150837-11.487723 11.487722-11.487722h8.336224c6.302998 0 11.487723 5.150837 11.487722 11.487722z m48.187438 0v99.560262c0 6.302998-5.150837 11.487723-11.487723 11.487723h-8.336223c-6.302998 0-11.487723-5.150837-11.487723-11.487723v-99.560262c0-6.302998 5.150837-11.487723 11.487723-11.487722h8.336223c6.404659 0 11.487723 5.150837 11.487723 11.487722z m-777.810312-0.372758v99.560262c0 6.302998-5.150837 11.487723-11.487722 11.487723h-8.336224c-6.302998 0-11.487723-5.150837-11.487722-11.487723v-99.560262c0-6.302998 5.150837-11.487723 11.487722-11.487722h8.336224c6.302998 0 11.487723 5.150837 11.487722 11.487722z m48.187438 0v99.560262c0 6.302998-5.150837 11.487723-11.487722 11.487723h-8.336224c-6.302998 0-11.487723-5.150837-11.487722-11.487723v-99.560262c0-6.302998 5.150837-11.487723 11.487722-11.487722h8.336224c6.302998 0 11.487723 5.150837 11.487722 11.487722z m48.187438 0v99.560262c0 6.302998-5.150837 11.487723-11.487722 11.487723h-8.336224c-6.302998 0-11.487723-5.150837-11.487722-11.487723v-99.560262c0-6.302998 5.150837-11.487723 11.487722-11.487722h8.336224c6.302998 0 11.487723 5.150837 11.487722 11.487722z m326.502085 358.050963h-99.560262c-6.302998 0-11.487723-5.150837-11.487723-11.487722v-8.336224c0-6.302998 5.150837-11.487723 11.487723-11.487722h99.560262c6.302998 0 11.487723 5.150837 11.487723 11.487722v8.336224c0 6.404659-5.150837 11.487723-11.487723 11.487722z m0 48.2891h-99.560262c-6.302998 0-11.487723-5.150837-11.487723-11.487723v-8.336223c0-6.302998 5.150837-11.487723 11.487723-11.487723h99.560262c6.302998 0 11.487723 5.150837 11.487723 11.487723v8.336223c0 6.302998-5.150837 11.487723-11.487723 11.487723z m0 48.187437h-99.560262c-6.302998 0-11.487723-5.150837-11.487723-11.487722v-8.336224c0-6.302998 5.150837-11.487723 11.487723-11.487722h99.560262c6.302998 0 11.487723 5.150837 11.487723 11.487722v8.336224c0 6.302998-5.150837 11.487723-11.487723 11.487722z m0.271097-777.911973h-99.458601c-6.302998 0-11.487723-5.150837-11.487723-11.487722v-8.336224c0-6.302998 5.150837-11.487723 11.487723-11.487722h99.458601c6.302998 0 11.487723 5.150837 11.487722 11.487722v8.336224c0 6.404659-5.150837 11.487723-11.487722 11.487722z m0 48.187438h-99.458601c-6.302998 0-11.487723-5.150837-11.487723-11.487722v-8.336224c0-6.302998 5.150837-11.487723 11.487723-11.487722h99.458601c6.302998 0 11.487723 5.150837 11.487722 11.487722v8.336224c0 6.404659-5.150837 11.487723-11.487722 11.487722z m0 48.187438h-99.458601c-6.302998 0-11.487723-5.150837-11.487723-11.487722v-8.336224c0-6.302998 5.150837-11.487723 11.487723-11.487722h99.458601c6.302998 0 11.487723 5.150837 11.487722 11.487722v8.336224c0 6.404659-5.150837 11.487723-11.487722 11.487722z m-35.750877 52.59276c117.520418 7.319611 210.57436 104.914422 210.574359 224.29863 0 124.1284-100.610762 224.739162-224.739162 224.739162-5.150837 0-10.267787-0.203323-15.35085-0.542194-54.761533-7.658482-96.815408-54.592097-96.815408-111.454629 0-62.148918 50.288437-112.572904 112.26792-112.742339h0.304983c62.148918 0 112.572904-50.390099 112.572904-112.572904 0-57.506387-43.138262-104.948309-98.780859-111.725726z m-49.44126 336.939307c0 19.07843 15.452512 34.530942 34.530941 34.530942s34.530942-15.452512 34.530942-34.530942c0-12.3349-6.574095-23.720961-17.248527-29.888411s-23.856509-6.16745-34.530942 0-17.248527 17.553511-17.248527 29.888411z m35.276457-361.304123c-33.582103 0-66.07982 6.607982-96.781521 19.518962-29.651201 12.538222-56.218678 30.430604-78.9908 53.270501-22.873784 22.839897-40.732279 49.44126-53.270501 78.9908-13.012641 30.701701-19.518962 63.199418-19.518962 96.781521s6.607982 66.07982 19.518962 96.781521c12.538222 29.651201 30.430604 56.218678 53.270501 78.9908 22.839897 22.873784 49.44126 40.732279 78.9908 53.270501 30.701701 13.012641 63.199418 19.518962 96.781521 19.518963s66.07982-6.607982 96.781521-19.518963c29.651201-12.538222 56.218678-30.396717 78.9908-53.270501 22.873784-22.873784 40.732279-49.44126 53.270502-78.9908 13.012641-30.701701 19.518962-63.233305 19.518962-96.781521 0-33.582103-6.607982-66.07982-19.518962-96.781521-12.538222-29.651201-30.396717-56.218678-53.270502-78.9908-22.873784-22.873784-49.44126-40.732279-78.9908-53.270501-30.60004-12.91098-63.233305-19.518962-96.781521-19.518962z m1.0505 473.877027h-0.677742 0.677742z m188.412205-682.452049H314.884083l-267.877424 267.877425v378.823747l267.877424 267.877424h378.823747l267.979086-267.877424V377.298829l-267.877424-267.877425z m-189.903237 308.779139c19.383414 0 35.107022 15.723608 35.107023 35.107022s-15.723608 35.107022-35.107023 35.107022-35.107022-15.723608-35.107022-35.107022 15.723608-35.107022 35.107022-35.107022z" p-id="2771" fill="#2c2c2c"></path></svg>